<svg width="50" height="50" viewBox="0 0 50 50" fill="none" xmlns="http://www.w3.org/2000/svg">
<g clip-path="url(#clip0_88_340)">
<path fill-rule="evenodd" clip-rule="evenodd" d="M16.5417 27.2083C15.9565 26.6224 15.6278 25.8281 15.6278 25C15.6278 24.1718 15.9565 23.3776 16.5417 22.7916L28.3251 11.0041C28.9113 10.4182 29.7063 10.0891 30.5352 10.0893C30.9456 10.0894 31.352 10.1703 31.7311 10.3275C32.1102 10.4846 32.4547 10.7149 32.7448 11.0052C33.035 11.2955 33.2651 11.64 33.4221 12.0193C33.5791 12.3985 33.6598 12.8049 33.6597 13.2153C33.6596 13.6257 33.5787 14.0321 33.4215 14.4112C33.2644 14.7904 33.0341 15.1348 32.7438 15.425L23.1709 25L32.7459 34.575C33.0445 34.8631 33.2827 35.2078 33.4467 35.589C33.6106 35.9702 33.697 36.3802 33.7008 36.7951C33.7046 37.2101 33.6258 37.6216 33.4688 38.0057C33.3119 38.3899 33.08 38.7389 32.7867 39.0324C32.4934 39.326 32.1446 39.5582 31.7607 39.7155C31.3767 39.8728 30.9652 39.9521 30.5503 39.9487C30.1354 39.9452 29.7253 39.8592 29.3439 39.6956C28.9626 39.532 28.6176 39.2941 28.3292 38.9958L16.5376 27.2083H16.5417Z" fill="white"/>
</g>
<defs>
<clipPath id="clip0_88_340">
<rect width="50" height="50" fill="white"/>
</clipPath>
</defs>
</svg>
