<svg width="34" height="28" viewBox="0 0 34 28" fill="none" xmlns="http://www.w3.org/2000/svg">
<path d="M17.4066 0.666626C18.2966 0.671626 20.5233 0.693293 22.8899 0.788293L23.7299 0.824959C26.1116 0.936626 28.4916 1.12996 29.6732 1.45829C31.2482 1.90163 32.4849 3.19163 32.9032 4.82829C33.5699 7.42829 33.6532 12.4983 33.6632 13.7266L33.6649 13.98V14.27C33.6532 15.4983 33.5699 20.57 32.9032 23.1683C32.4799 24.81 31.2416 26.1016 29.6732 26.5383C28.4916 26.8666 26.1116 27.06 23.7299 27.1716L22.8899 27.21C20.5233 27.3033 18.2966 27.3266 17.4066 27.33L17.0149 27.3316H16.5899C14.7066 27.32 6.82992 27.235 4.32325 26.5383C2.74992 26.095 1.51159 24.805 1.09325 23.1683C0.426585 20.5683 0.343252 15.4983 0.333252 14.27V13.7266C0.343252 12.4983 0.426585 7.42663 1.09325 4.82829C1.51659 3.18663 2.75492 1.89496 4.32492 1.45996C6.82992 0.761626 14.7083 0.676626 16.5916 0.666626H17.4066ZM13.6649 8.16663V19.8333L23.6649 14L13.6649 8.16663Z" fill="black"/>
</svg>
