<svg width="34" height="34" viewBox="0 0 34 34" fill="none" xmlns="http://www.w3.org/2000/svg">
<path d="M26.5 14.8333C21.1667 11.6667 12.25 11.3333 7.16667 12.9167C6.33333 13.1667 5.5 12.6667 5.25 11.9167C5 11.0833 5.5 10.25 6.25 10C12.1667 8.25 21.9167 8.58333 28.0833 12.25C28.8333 12.6667 29.0833 13.6667 28.6667 14.4167C28.25 15 27.25 15.25 26.5 14.8333ZM26.3333 19.5C25.9167 20.0833 25.1667 20.3333 24.5833 19.9167C20.0833 17.1667 13.25 16.3333 8 18C7.33333 18.1667 6.58333 17.8333 6.41667 17.1667C6.25 16.5 6.58333 15.75 7.25 15.5833C13.3333 13.75 20.8333 14.6667 26 17.8333C26.5 18.0833 26.75 18.9167 26.3333 19.5ZM24.3333 24.0833C24 24.5833 23.4167 24.75 22.9167 24.4167C19 22 14.0833 21.5 8.25 22.8333C7.66667 23 7.16667 22.5833 7 22.0833C6.83333 21.5 7.25 21 7.75 20.8333C14.0833 19.4167 19.5833 20 23.9167 22.6667C24.5 22.9167 24.5833 23.5833 24.3333 24.0833ZM16.6667 0C14.478 0 12.3107 0.431096 10.2886 1.26867C8.26652 2.10625 6.4292 3.33391 4.88155 4.88155C1.75595 8.00716 0 12.2464 0 16.6667C0 21.0869 1.75595 25.3262 4.88155 28.4518C6.4292 29.9994 8.26652 31.2271 10.2886 32.0647C12.3107 32.9022 14.478 33.3333 16.6667 33.3333C21.0869 33.3333 25.3262 31.5774 28.4518 28.4518C31.5774 25.3262 33.3333 21.0869 33.3333 16.6667C33.3333 14.478 32.9022 12.3107 32.0647 10.2886C31.2271 8.26652 29.9994 6.4292 28.4518 4.88155C26.9041 3.33391 25.0668 2.10625 23.0447 1.26867C21.0226 0.431096 18.8554 0 16.6667 0Z" fill="black"/>
</svg>
